<svg width="148" height="56" viewBox="0 0 148 56" fill="none" xmlns="http://www.w3.org/2000/svg">
<path d="M0 28C0 12.536 12.536 0 28 0H120C135.464 0 148 12.536 148 28C148 43.464 135.464 56 120 56H28C12.536 56 0 43.464 0 28Z" fill="#0E7ACC" fill-opacity="0.5"/>
<path d="M47.6435 38V19.0909H55.2145C56.6056 19.0909 57.7659 19.2971 58.6953 19.7095C59.6248 20.1219 60.3234 20.6944 60.7912 21.4268C61.259 22.1532 61.4929 22.9903 61.4929 23.9382C61.4929 24.6768 61.3452 25.3262 61.0497 25.8864C60.7543 26.4403 60.348 26.8958 59.831 27.2528C59.3201 27.6037 58.7353 27.853 58.0767 28.0007V28.1854C58.7969 28.2161 59.4709 28.4193 60.0987 28.7947C60.7327 29.1702 61.2467 29.6965 61.6406 30.3736C62.0346 31.0445 62.2315 31.8447 62.2315 32.7741C62.2315 33.7775 61.9822 34.6731 61.4837 35.4609C60.9912 36.2427 60.2618 36.8613 59.2955 37.3168C58.3291 37.7723 57.138 38 55.7223 38H47.6435ZM51.6413 34.7315H54.9006C56.0147 34.7315 56.8272 34.5192 57.3381 34.0945C57.849 33.6636 58.1044 33.0911 58.1044 32.3771C58.1044 31.8539 57.9782 31.3923 57.7259 30.9922C57.4735 30.5921 57.1134 30.2782 56.6456 30.0504C56.1839 29.8227 55.633 29.7088 54.9929 29.7088H51.6413V34.7315ZM51.6413 27.0036H54.6051C55.1529 27.0036 55.6392 26.9081 56.0639 26.7173C56.4948 26.5204 56.8333 26.2434 57.0795 25.8864C57.3319 25.5294 57.4581 25.1016 57.4581 24.603C57.4581 23.9197 57.215 23.3688 56.7287 22.9503C56.2486 22.5317 55.5653 22.3224 54.679 22.3224H51.6413V27.0036ZM64.1127 22.3871V19.0909H79.6426V22.3871H73.8535V38H69.9018V22.3871H64.1127ZM82.2001 38V19.0909H89.7711C91.1622 19.0909 92.3225 19.2971 93.252 19.7095C94.1814 20.1219 94.88 20.6944 95.3478 21.4268C95.8156 22.1532 96.0495 22.9903 96.0495 23.9382C96.0495 24.6768 95.9018 25.3262 95.6064 25.8864C95.3109 26.4403 94.9047 26.8958 94.3876 27.2528C93.8767 27.6037 93.292 27.853 92.6333 28.0007V28.1854C93.3535 28.2161 94.0275 28.4193 94.6554 28.7947C95.2894 29.1702 95.8033 29.6965 96.1973 30.3736C96.5912 31.0445 96.7882 31.8447 96.7882 32.7741C96.7882 33.7775 96.5389 34.6731 96.0403 35.4609C95.5479 36.2427 94.8185 36.8613 93.8521 37.3168C92.8857 37.7723 91.6947 38 90.2789 38H82.2001ZM86.198 34.7315H89.4572C90.5713 34.7315 91.3838 34.5192 91.8947 34.0945C92.4056 33.6636 92.661 33.0911 92.661 32.3771C92.661 31.8539 92.5349 31.3923 92.2825 30.9922C92.0301 30.5921 91.67 30.2782 91.2022 30.0504C90.7406 29.8227 90.1897 29.7088 89.5495 29.7088H86.198V34.7315ZM86.198 27.0036H89.1618C89.7096 27.0036 90.1958 26.9081 90.6206 26.7173C91.0514 26.5204 91.39 26.2434 91.6362 25.8864C91.8886 25.5294 92.0147 25.1016 92.0147 24.603C92.0147 23.9197 91.7716 23.3688 91.2853 22.9503C90.8052 22.5317 90.122 22.3224 89.2356 22.3224H86.198V27.0036Z" fill="white"/>
</svg>
