<svg width="148" height="56" viewBox="0 0 148 56" fill="none" xmlns="http://www.w3.org/2000/svg">
<path d="M0 28C0 12.536 12.536 0 28 0H120C135.464 0 148 12.536 148 28C148 43.464 135.464 56 120 56H28C12.536 56 0 43.464 0 28Z" fill="#CC5A0E" fill-opacity="0.5"/>
<path d="M39.6435 38V19.0909H47.1037C48.5379 19.0909 49.7597 19.3648 50.7692 19.9126C51.7786 20.4543 52.5481 21.2083 53.0774 22.1747C53.6129 23.1349 53.8807 24.2429 53.8807 25.4986C53.8807 26.7543 53.6098 27.8622 53.0682 28.8224C52.5265 29.7827 51.7417 30.5305 50.7138 31.0661C49.692 31.6016 48.4548 31.8693 47.0021 31.8693H42.2472V28.6655H46.3558C47.1252 28.6655 47.7592 28.5331 48.2578 28.2685C48.7625 27.9976 49.138 27.6252 49.3842 27.1513C49.6366 26.6712 49.7628 26.1203 49.7628 25.4986C49.7628 24.8707 49.6366 24.3229 49.3842 23.8551C49.138 23.3812 48.7625 23.0149 48.2578 22.7564C47.7531 22.4917 47.1129 22.3594 46.3374 22.3594H43.6413V38H39.6435ZM56.4775 38V19.0909H63.9377C65.3719 19.0909 66.5937 19.3648 67.6032 19.9126C68.6126 20.4543 69.382 21.2083 69.9114 22.1747C70.4469 23.1349 70.7147 24.2429 70.7147 25.4986C70.7147 26.7543 70.4438 27.8622 69.9022 28.8224C69.3605 29.7827 68.5757 30.5305 67.5478 31.0661C66.526 31.6016 65.2888 31.8693 63.8361 31.8693H59.0811V28.6655H63.1898C63.9592 28.6655 64.5932 28.5331 65.0918 28.2685C65.5965 27.9976 65.972 27.6252 66.2182 27.1513C66.4706 26.6712 66.5968 26.1203 66.5968 25.4986C66.5968 24.8707 66.4706 24.3229 66.2182 23.8551C65.972 23.3812 65.5965 23.0149 65.0918 22.7564C64.5871 22.4917 63.9469 22.3594 63.1713 22.3594H60.4753V38H56.4775ZM73.3114 38V19.0909H80.8825C82.2736 19.0909 83.4338 19.2971 84.3633 19.7095C85.2927 20.1219 85.9914 20.6944 86.4592 21.4268C86.927 22.1532 87.1609 22.9903 87.1609 23.9382C87.1609 24.6768 87.0131 25.3262 86.7177 25.8864C86.4222 26.4403 86.016 26.8958 85.4989 27.2528C84.988 27.6037 84.4033 27.853 83.7447 28.0007V28.1854C84.4648 28.2161 85.1388 28.4193 85.7667 28.7947C86.4007 29.1702 86.9147 29.6965 87.3086 30.3736C87.7025 31.0445 87.8995 31.8447 87.8995 32.7741C87.8995 33.7775 87.6502 34.6731 87.1516 35.4609C86.6592 36.2427 85.9298 36.8613 84.9634 37.3168C83.997 37.7723 82.806 38 81.3903 38H73.3114ZM77.3093 34.7315H80.5685C81.6826 34.7315 82.4951 34.5192 83.006 34.0945C83.5169 33.6636 83.7724 33.0911 83.7724 32.3771C83.7724 31.8539 83.6462 31.3923 83.3938 30.9922C83.1415 30.5921 82.7814 30.2782 82.3136 30.0504C81.8519 29.8227 81.301 29.7088 80.6609 29.7088H77.3093V34.7315ZM77.3093 27.0036H80.2731C80.8209 27.0036 81.3072 26.9081 81.7319 26.7173C82.1628 26.5204 82.5013 26.2434 82.7475 25.8864C82.9999 25.5294 83.1261 25.1016 83.1261 24.603C83.1261 23.9197 82.8829 23.3688 82.3967 22.9503C81.9165 22.5317 81.2333 22.3224 80.3469 22.3224H77.3093V27.0036ZM90.5009 38V19.0909H94.4988V27.4283H94.748L101.553 19.0909H106.345L99.3276 27.5575L106.428 38H101.645L96.4654 30.2259L94.4988 32.6264V38H90.5009Z" fill="black"/>
</svg>
