<svg width="148" height="56" viewBox="0 0 148 56" fill="none" xmlns="http://www.w3.org/2000/svg">
<path d="M0 28C0 12.536 12.536 0 28 0H120C135.464 0 148 12.536 148 28C148 43.464 135.464 56 120 56H28C12.536 56 0 43.464 0 28Z" fill="#183B35" fill-opacity="0.5"/>
<path d="M29.6435 38V19.0909H37.1037C38.5379 19.0909 39.7597 19.3648 40.7692 19.9126C41.7786 20.4543 42.5481 21.2083 43.0774 22.1747C43.6129 23.1349 43.8807 24.2429 43.8807 25.4986C43.8807 26.7543 43.6098 27.8622 43.0682 28.8224C42.5265 29.7827 41.7417 30.5305 40.7138 31.0661C39.692 31.6016 38.4548 31.8693 37.0021 31.8693H32.2472V28.6655H36.3558C37.1252 28.6655 37.7592 28.5331 38.2578 28.2685C38.7625 27.9976 39.138 27.6252 39.3842 27.1513C39.6366 26.6712 39.7628 26.1203 39.7628 25.4986C39.7628 24.8707 39.6366 24.3229 39.3842 23.8551C39.138 23.3812 38.7625 23.0149 38.2578 22.7564C37.7531 22.4917 37.1129 22.3594 36.3374 22.3594H33.6413V38H29.6435ZM46.4775 38V19.0909H53.9377C55.3719 19.0909 56.5937 19.3648 57.6032 19.9126C58.6126 20.4543 59.382 21.2083 59.9114 22.1747C60.4469 23.1349 60.7147 24.2429 60.7147 25.4986C60.7147 26.7543 60.4438 27.8622 59.9022 28.8224C59.3605 29.7827 58.5757 30.5305 57.5478 31.0661C56.526 31.6016 55.2888 31.8693 53.8361 31.8693H49.0811V28.6655H53.1898C53.9592 28.6655 54.5932 28.5331 55.0918 28.2685C55.5965 27.9976 55.972 27.6252 56.2182 27.1513C56.4706 26.6712 56.5968 26.1203 56.5968 25.4986C56.5968 24.8707 56.4706 24.3229 56.2182 23.8551C55.972 23.3812 55.5965 23.0149 55.0918 22.7564C54.5871 22.4917 53.9469 22.3594 53.1713 22.3594H50.4753V38H46.4775ZM63.3114 38V19.0909H70.8825C72.2736 19.0909 73.4338 19.2971 74.3633 19.7095C75.2927 20.1219 75.9914 20.6944 76.4592 21.4268C76.927 22.1532 77.1609 22.9903 77.1609 23.9382C77.1609 24.6768 77.0131 25.3262 76.7177 25.8864C76.4222 26.4403 76.016 26.8958 75.4989 27.2528C74.988 27.6037 74.4033 27.853 73.7447 28.0007V28.1854C74.4648 28.2161 75.1388 28.4193 75.7667 28.7947C76.4007 29.1702 76.9147 29.6965 77.3086 30.3736C77.7025 31.0445 77.8995 31.8447 77.8995 32.7741C77.8995 33.7775 77.6502 34.6731 77.1516 35.4609C76.6592 36.2427 75.9298 36.8613 74.9634 37.3168C73.997 37.7723 72.806 38 71.3903 38H63.3114ZM67.3093 34.7315H70.5685C71.6826 34.7315 72.4951 34.5192 73.006 34.0945C73.5169 33.6636 73.7724 33.0911 73.7724 32.3771C73.7724 31.8539 73.6462 31.3923 73.3938 30.9922C73.1415 30.5921 72.7814 30.2782 72.3136 30.0504C71.8519 29.8227 71.301 29.7088 70.6609 29.7088H67.3093V34.7315ZM67.3093 27.0036H70.2731C70.8209 27.0036 71.3072 26.9081 71.7319 26.7173C72.1628 26.5204 72.5013 26.2434 72.7475 25.8864C72.9999 25.5294 73.1261 25.1016 73.1261 24.603C73.1261 23.9197 72.8829 23.3688 72.3967 22.9503C71.9165 22.5317 71.2333 22.3224 70.3469 22.3224H67.3093V27.0036ZM79.7807 22.3871V19.0909H95.3105V22.3871H89.5215V38H85.5698V22.3871H79.7807ZM97.8681 38V19.0909H101.866V27.4283H102.115L108.92 19.0909H113.712L106.695 27.5575L113.795 38H109.012L103.833 30.2259L101.866 32.6264V38H97.8681Z" fill="white"/>
</svg>
