<svg width="148" height="56" viewBox="0 0 148 56" fill="none" xmlns="http://www.w3.org/2000/svg">
<path d="M0 28C0 12.536 12.536 0 28 0H120C135.464 0 148 12.536 148 28C148 43.464 135.464 56 120 56H28C12.536 56 0 43.464 0 28Z" fill="#582C5F" fill-opacity="0.5"/>
<path d="M67.9013 24.5291C67.8274 23.7843 67.5104 23.2057 66.9503 22.7933C66.3902 22.3809 65.63 22.1747 64.6697 22.1747C64.0173 22.1747 63.4664 22.267 63.017 22.4517C62.5677 22.6302 62.223 22.8795 61.983 23.1996C61.7491 23.5196 61.6321 23.8828 61.6321 24.2891C61.6198 24.6276 61.6906 24.9231 61.8445 25.1754C62.0045 25.4278 62.223 25.6463 62.5 25.831C62.777 26.0095 63.0971 26.1664 63.4602 26.3018C63.8234 26.4311 64.2112 26.5419 64.6236 26.6342L66.3224 27.0405C67.1473 27.2251 67.9044 27.4714 68.5938 27.7791C69.2831 28.0869 69.8802 28.4654 70.3849 28.9148C70.8897 29.3641 71.2805 29.8935 71.5575 30.5028C71.8407 31.1122 71.9853 31.8108 71.9915 32.5987C71.9853 33.7559 71.6899 34.7592 71.1051 35.6087C70.5265 36.4519 69.6894 37.1075 68.5938 37.5753C67.5043 38.0369 66.1901 38.2678 64.6513 38.2678C63.1248 38.2678 61.7952 38.0339 60.6626 37.5661C59.5362 37.0982 58.656 36.4058 58.022 35.4886C57.3942 34.5653 57.0649 33.4235 57.0341 32.0632H60.9027C60.9458 32.6972 61.1274 33.2266 61.4474 33.6513C61.7737 34.0698 62.2076 34.3868 62.7493 34.6023C63.2971 34.8116 63.9157 34.9162 64.6051 34.9162C65.2822 34.9162 65.87 34.8177 66.3686 34.6207C66.8733 34.4238 67.2642 34.1499 67.5412 33.799C67.8182 33.4482 67.9567 33.045 67.9567 32.5895C67.9567 32.1648 67.8305 31.8078 67.5781 31.5185C67.3319 31.2292 66.9688 30.983 66.4886 30.7798C66.0147 30.5767 65.433 30.392 64.7436 30.2259L62.6847 29.7088C61.0904 29.321 59.8317 28.7147 58.9084 27.8899C57.9851 27.0651 57.5265 25.9541 57.5327 24.5568C57.5265 23.4119 57.8312 22.4117 58.4467 21.5561C59.0684 20.7005 59.9209 20.0327 61.0043 19.5526C62.0876 19.0724 63.3187 18.8324 64.6974 18.8324C66.1009 18.8324 67.3258 19.0724 68.3722 19.5526C69.4247 20.0327 70.2434 20.7005 70.8281 21.5561C71.4129 22.4117 71.7145 23.4027 71.733 24.5291H67.9013ZM74.6806 38V19.0909H82.1408C83.5688 19.0909 84.7876 19.3464 85.7971 19.8572C86.8127 20.362 87.5852 21.0791 88.1145 22.0085C88.65 22.9318 88.9178 24.0182 88.9178 25.2678C88.9178 26.5234 88.647 27.6037 88.1053 28.5085C87.5636 29.4072 86.7788 30.0966 85.7509 30.5767C84.7291 31.0568 83.4919 31.2969 82.0392 31.2969H77.0442V28.0838H81.3929C82.1562 28.0838 82.7902 27.9792 83.2949 27.7699C83.7997 27.5606 84.1751 27.2467 84.4213 26.8281C84.6737 26.4096 84.7999 25.8894 84.7999 25.2678C84.7999 24.6399 84.6737 24.1106 84.4213 23.6797C84.1751 23.2488 83.7966 22.9226 83.2857 22.701C82.781 22.4732 82.1439 22.3594 81.3745 22.3594H78.6784V38H74.6806ZM84.8922 29.3949L89.5918 38H85.1784L80.5804 29.3949H84.8922Z" fill="white"/>
</svg>
