<svg width="148" height="56" viewBox="0 0 148 56" fill="none" xmlns="http://www.w3.org/2000/svg">
<path d="M0 28C0 12.536 12.536 0 28 0H120C135.464 0 148 12.536 148 28C148 43.464 135.464 56 120 56H28C12.536 56 0 43.464 0 28Z" fill="#0ECCB6" fill-opacity="0.5"/>
<path d="M66.9013 24.5291C66.8274 23.7843 66.5104 23.2057 65.9503 22.7933C65.3902 22.3809 64.63 22.1747 63.6697 22.1747C63.0173 22.1747 62.4664 22.267 62.017 22.4517C61.5677 22.6302 61.223 22.8795 60.983 23.1996C60.7491 23.5196 60.6321 23.8828 60.6321 24.2891C60.6198 24.6276 60.6906 24.9231 60.8445 25.1754C61.0045 25.4278 61.223 25.6463 61.5 25.831C61.777 26.0095 62.0971 26.1664 62.4602 26.3018C62.8234 26.4311 63.2112 26.5419 63.6236 26.6342L65.3224 27.0405C66.1473 27.2251 66.9044 27.4714 67.5938 27.7791C68.2831 28.0869 68.8802 28.4654 69.3849 28.9148C69.8897 29.3641 70.2805 29.8935 70.5575 30.5028C70.8407 31.1122 70.9853 31.8108 70.9915 32.5987C70.9853 33.7559 70.6899 34.7592 70.1051 35.6087C69.5265 36.4519 68.6894 37.1075 67.5938 37.5753C66.5043 38.0369 65.1901 38.2678 63.6513 38.2678C62.1248 38.2678 60.7952 38.0339 59.6626 37.5661C58.5362 37.0982 57.656 36.4058 57.022 35.4886C56.3942 34.5653 56.0649 33.4235 56.0341 32.0632H59.9027C59.9458 32.6972 60.1274 33.2266 60.4474 33.6513C60.7737 34.0698 61.2076 34.3868 61.7493 34.6023C62.2971 34.8116 62.9157 34.9162 63.6051 34.9162C64.2822 34.9162 64.87 34.8177 65.3686 34.6207C65.8733 34.4238 66.2642 34.1499 66.5412 33.799C66.8182 33.4482 66.9567 33.045 66.9567 32.5895C66.9567 32.1648 66.8305 31.8078 66.5781 31.5185C66.3319 31.2292 65.9688 30.983 65.4886 30.7798C65.0147 30.5767 64.433 30.392 63.7436 30.2259L61.6847 29.7088C60.0904 29.321 58.8317 28.7147 57.9084 27.8899C56.9851 27.0651 56.5265 25.9541 56.5327 24.5568C56.5265 23.4119 56.8312 22.4117 57.4467 21.5561C58.0684 20.7005 58.9209 20.0327 60.0043 19.5526C61.0876 19.0724 62.3187 18.8324 63.6974 18.8324C65.1009 18.8324 66.3258 19.0724 67.3722 19.5526C68.4247 20.0327 69.2434 20.7005 69.8281 21.5561C70.4129 22.4117 70.7145 23.4027 70.733 24.5291H66.9013ZM73.6806 38V19.0909H81.1408C82.5688 19.0909 83.7876 19.3464 84.7971 19.8572C85.8127 20.362 86.5852 21.0791 87.1145 22.0085C87.65 22.9318 87.9178 24.0182 87.9178 25.2678C87.9178 26.5234 87.647 27.6037 87.1053 28.5085C86.5636 29.4072 85.7788 30.0966 84.7509 30.5767C83.7291 31.0568 82.4919 31.2969 81.0392 31.2969H76.0442V28.0838H80.3929C81.1562 28.0838 81.7902 27.9792 82.2949 27.7699C82.7997 27.5606 83.1751 27.2467 83.4213 26.8281C83.6737 26.4096 83.7999 25.8894 83.7999 25.2678C83.7999 24.6399 83.6737 24.1106 83.4213 23.6797C83.1751 23.2488 82.7966 22.9226 82.2857 22.701C81.781 22.4732 81.1439 22.3594 80.3745 22.3594H77.6784V38H73.6806ZM83.8922 29.3949L88.5918 38H84.1784L79.5804 29.3949H83.8922Z" fill="black"/>
</svg>
